<mxfile host="app.diagrams.net" modified="2023-07-25T11:40:31.209Z" agent="Mozilla/5.0 (Windows NT 10.0; Win64; x64) AppleWebKit/537.36 (KHTML, like Gecko) Chrome/114.0.0.0 Safari/537.36" version="21.6.5" etag="IAsh2TrDBQ731cxj2IP8" type="device">
  <diagram id="C5RBs43oDa-KdzZeNtuy" name="Page-1">
    <mxGraphModel dx="1105" dy="551" grid="1" gridSize="10" guides="1" tooltips="1" connect="1" arrows="1" fold="1" page="1" pageScale="1" pageWidth="827" pageHeight="1169" math="0" shadow="0">
      <root>
        <mxCell id="WIyWlLk6GJQsqaUBKTNV-0" />
        <mxCell id="WIyWlLk6GJQsqaUBKTNV-1" parent="WIyWlLk6GJQsqaUBKTNV-0" />
        <mxCell id="FNX5qKE9I0ZPfB3TcA4R-4" style="edgeStyle=orthogonalEdgeStyle;rounded=0;orthogonalLoop=1;jettySize=auto;html=1;entryX=1;entryY=0.5;entryDx=0;entryDy=0;endArrow=none;endFill=0;" edge="1" parent="WIyWlLk6GJQsqaUBKTNV-1" source="FNX5qKE9I0ZPfB3TcA4R-0" target="FNX5qKE9I0ZPfB3TcA4R-3">
          <mxGeometry relative="1" as="geometry" />
        </mxCell>
        <mxCell id="FNX5qKE9I0ZPfB3TcA4R-5" style="edgeStyle=orthogonalEdgeStyle;rounded=0;orthogonalLoop=1;jettySize=auto;html=1;endArrow=none;endFill=0;" edge="1" parent="WIyWlLk6GJQsqaUBKTNV-1" source="FNX5qKE9I0ZPfB3TcA4R-0" target="FNX5qKE9I0ZPfB3TcA4R-1">
          <mxGeometry relative="1" as="geometry" />
        </mxCell>
        <mxCell id="FNX5qKE9I0ZPfB3TcA4R-0" value="clinica" style="rounded=0;whiteSpace=wrap;html=1;" vertex="1" parent="WIyWlLk6GJQsqaUBKTNV-1">
          <mxGeometry x="60" y="340" width="120" height="60" as="geometry" />
        </mxCell>
        <mxCell id="FNX5qKE9I0ZPfB3TcA4R-6" style="edgeStyle=orthogonalEdgeStyle;rounded=0;orthogonalLoop=1;jettySize=auto;html=1;entryX=0;entryY=0.5;entryDx=0;entryDy=0;endArrow=none;endFill=0;" edge="1" parent="WIyWlLk6GJQsqaUBKTNV-1" source="FNX5qKE9I0ZPfB3TcA4R-1" target="FNX5qKE9I0ZPfB3TcA4R-2">
          <mxGeometry relative="1" as="geometry" />
        </mxCell>
        <mxCell id="FNX5qKE9I0ZPfB3TcA4R-1" value="atende" style="rhombus;whiteSpace=wrap;html=1;" vertex="1" parent="WIyWlLk6GJQsqaUBKTNV-1">
          <mxGeometry x="250" y="330" width="80" height="80" as="geometry" />
        </mxCell>
        <mxCell id="FNX5qKE9I0ZPfB3TcA4R-11" style="edgeStyle=orthogonalEdgeStyle;rounded=0;orthogonalLoop=1;jettySize=auto;html=1;entryX=0;entryY=0.5;entryDx=0;entryDy=0;endArrow=none;endFill=0;" edge="1" parent="WIyWlLk6GJQsqaUBKTNV-1" source="FNX5qKE9I0ZPfB3TcA4R-2" target="FNX5qKE9I0ZPfB3TcA4R-7">
          <mxGeometry relative="1" as="geometry" />
        </mxCell>
        <mxCell id="FNX5qKE9I0ZPfB3TcA4R-12" style="edgeStyle=orthogonalEdgeStyle;rounded=0;orthogonalLoop=1;jettySize=auto;html=1;entryX=0;entryY=0.5;entryDx=0;entryDy=0;endArrow=none;endFill=0;" edge="1" parent="WIyWlLk6GJQsqaUBKTNV-1" source="FNX5qKE9I0ZPfB3TcA4R-2" target="FNX5qKE9I0ZPfB3TcA4R-10">
          <mxGeometry relative="1" as="geometry" />
        </mxCell>
        <mxCell id="FNX5qKE9I0ZPfB3TcA4R-13" style="edgeStyle=orthogonalEdgeStyle;rounded=0;orthogonalLoop=1;jettySize=auto;html=1;entryX=0;entryY=0.5;entryDx=0;entryDy=0;endArrow=none;endFill=0;" edge="1" parent="WIyWlLk6GJQsqaUBKTNV-1" source="FNX5qKE9I0ZPfB3TcA4R-2" target="FNX5qKE9I0ZPfB3TcA4R-9">
          <mxGeometry relative="1" as="geometry" />
        </mxCell>
        <mxCell id="FNX5qKE9I0ZPfB3TcA4R-14" style="edgeStyle=orthogonalEdgeStyle;rounded=0;orthogonalLoop=1;jettySize=auto;html=1;entryX=0;entryY=0.5;entryDx=0;entryDy=0;endArrow=none;endFill=0;" edge="1" parent="WIyWlLk6GJQsqaUBKTNV-1" source="FNX5qKE9I0ZPfB3TcA4R-2" target="FNX5qKE9I0ZPfB3TcA4R-8">
          <mxGeometry relative="1" as="geometry" />
        </mxCell>
        <mxCell id="FNX5qKE9I0ZPfB3TcA4R-2" value="pets" style="rounded=0;whiteSpace=wrap;html=1;" vertex="1" parent="WIyWlLk6GJQsqaUBKTNV-1">
          <mxGeometry x="394" y="340" width="120" height="60" as="geometry" />
        </mxCell>
        <mxCell id="FNX5qKE9I0ZPfB3TcA4R-3" value="endereco" style="ellipse;whiteSpace=wrap;html=1;direction=south;" vertex="1" parent="WIyWlLk6GJQsqaUBKTNV-1">
          <mxGeometry x="75.7" y="230" width="88.61" height="55" as="geometry" />
        </mxCell>
        <mxCell id="FNX5qKE9I0ZPfB3TcA4R-7" value="nome" style="ellipse;whiteSpace=wrap;html=1;" vertex="1" parent="WIyWlLk6GJQsqaUBKTNV-1">
          <mxGeometry x="560" y="250" width="80" height="50" as="geometry" />
        </mxCell>
        <mxCell id="FNX5qKE9I0ZPfB3TcA4R-8" value="dono" style="ellipse;whiteSpace=wrap;html=1;" vertex="1" parent="WIyWlLk6GJQsqaUBKTNV-1">
          <mxGeometry x="560" y="430" width="80" height="50" as="geometry" />
        </mxCell>
        <mxCell id="FNX5qKE9I0ZPfB3TcA4R-9" value="tipo de pet" style="ellipse;whiteSpace=wrap;html=1;" vertex="1" parent="WIyWlLk6GJQsqaUBKTNV-1">
          <mxGeometry x="560" y="370" width="80" height="50" as="geometry" />
        </mxCell>
        <mxCell id="FNX5qKE9I0ZPfB3TcA4R-10" value="data de nascimento" style="ellipse;whiteSpace=wrap;html=1;" vertex="1" parent="WIyWlLk6GJQsqaUBKTNV-1">
          <mxGeometry x="560" y="310" width="80" height="50" as="geometry" />
        </mxCell>
        <mxCell id="FNX5qKE9I0ZPfB3TcA4R-20" style="edgeStyle=orthogonalEdgeStyle;rounded=0;orthogonalLoop=1;jettySize=auto;html=1;entryX=0.5;entryY=1;entryDx=0;entryDy=0;endArrow=none;endFill=0;" edge="1" parent="WIyWlLk6GJQsqaUBKTNV-1" source="FNX5qKE9I0ZPfB3TcA4R-18" target="FNX5qKE9I0ZPfB3TcA4R-19">
          <mxGeometry relative="1" as="geometry" />
        </mxCell>
        <mxCell id="FNX5qKE9I0ZPfB3TcA4R-18" value="raca" style="rounded=0;whiteSpace=wrap;html=1;" vertex="1" parent="WIyWlLk6GJQsqaUBKTNV-1">
          <mxGeometry x="394" y="540" width="120" height="60" as="geometry" />
        </mxCell>
        <mxCell id="FNX5qKE9I0ZPfB3TcA4R-21" style="edgeStyle=orthogonalEdgeStyle;rounded=0;orthogonalLoop=1;jettySize=auto;html=1;entryX=0.5;entryY=1;entryDx=0;entryDy=0;endArrow=none;endFill=0;" edge="1" parent="WIyWlLk6GJQsqaUBKTNV-1" source="FNX5qKE9I0ZPfB3TcA4R-19" target="FNX5qKE9I0ZPfB3TcA4R-2">
          <mxGeometry relative="1" as="geometry" />
        </mxCell>
        <mxCell id="FNX5qKE9I0ZPfB3TcA4R-19" value="possui" style="rhombus;whiteSpace=wrap;html=1;" vertex="1" parent="WIyWlLk6GJQsqaUBKTNV-1">
          <mxGeometry x="414" y="430" width="80" height="80" as="geometry" />
        </mxCell>
        <mxCell id="FNX5qKE9I0ZPfB3TcA4R-22" value="N" style="text;html=1;align=center;verticalAlign=middle;resizable=0;points=[];autosize=1;strokeColor=none;fillColor=none;" vertex="1" parent="WIyWlLk6GJQsqaUBKTNV-1">
          <mxGeometry x="450" y="400" width="30" height="30" as="geometry" />
        </mxCell>
        <mxCell id="FNX5qKE9I0ZPfB3TcA4R-23" value="1" style="text;html=1;align=center;verticalAlign=middle;resizable=0;points=[];autosize=1;strokeColor=none;fillColor=none;" vertex="1" parent="WIyWlLk6GJQsqaUBKTNV-1">
          <mxGeometry x="450" y="510" width="30" height="30" as="geometry" />
        </mxCell>
        <mxCell id="eUbRqjOayq9dedV_3_VX-0" value="Uma clínica veterinária deseja cadastrar os pets que são atendidos em seu local.&#xa;&#xa;&#xa;- a clínica contém um endereço;&#xa;- os pets deverão ter nome, data de nascimento, tipo de pet;&#xa;- os pets deverão ter raça;&#xa;- os pets deverão ter donos;&#xa;- a clínica deseja cadastrar seus veterinários e todo atendimento de pet será feito por um veterinário;" style="text;whiteSpace=wrap;" vertex="1" parent="WIyWlLk6GJQsqaUBKTNV-1">
          <mxGeometry x="10" y="40" width="560" height="150" as="geometry" />
        </mxCell>
      </root>
    </mxGraphModel>
  </diagram>
</mxfile>
